<svg xmlns="http://www.w3.org/2000/svg" width="48" height="48" fill="none" id="intercom">
  <path fill="#1F8DED" d="M0 24C0 10.745 10.745 0 24 0s24 10.745 24 24-10.745 24-24 24S0 37.255 0 24Z"></path>
  <path fill="#fff" fill-rule="evenodd" d="M22.91 13.09a1.091 1.091 0 0 1 2.18 0v15.82a1.09 1.09 0 0 1-2.18 0V13.09Zm-4.364-.538a1.09 1.09 0 0 0-1.091 1.09v14.575a1.09 1.09 0 1 0 2.181 0V13.643c0-.603-.488-1.091-1.09-1.091Zm16.363 14.175A1.09 1.09 0 0 0 36 25.637v-9.812a1.09 1.09 0 0 0-2.182 0v9.811c0 .603.489 1.091 1.091 1.091ZM24 36c7.41 0 11.45-3.391 11.62-3.535a1.091 1.091 0 1 0-1.421-1.657c-.035.03-3.588 3.01-10.199 3.01-6.53 0-10.137-2.959-10.202-3.012a1.09 1.09 0 0 0-1.417 1.659C12.549 32.609 16.59 36 24 36ZM12 15.825a1.091 1.091 0 0 1 2.182 0v9.811a1.09 1.09 0 0 1-2.182 0v-9.811Zm17.455-3.273a1.09 1.09 0 0 0-1.091 1.09v14.575a1.09 1.09 0 1 0 2.181 0V13.643c0-.603-.488-1.091-1.09-1.091Z" clip-rule="evenodd"></path>
</svg>
