<?xml version="1.0" encoding="utf-8"?>
<!-- Generator: Adobe Illustrator 26.4.0, SVG Export Plug-In . SVG Version: 6.00 Build 0)  -->
<svg version="1.1" id="logo-white" xmlns="http://www.w3.org/2000/svg" xmlns:xlink="http://www.w3.org/1999/xlink" x="0px" y="0px"
	 viewBox="0 0 500 500" style="enable-background:new 0 0 500 500;" xml:space="preserve">
<rect style="fill:#FFFFFF;" width="500" height="500"/>
<g id="logo_ringover">
	<path id="icon" style="fill-rule:evenodd;clip-rule:evenodd;fill:#00DDD0;" d="M250.3,303.4c-51.97,0-92.8-34.85-102.02-85.3
		c-0.13-0.6-0.27-1.59-0.46-2.85h51.51c0.2,0.73,0.4,1.33,0.53,1.73c7.63,23.7,28.41,35.98,50.45,35.98
		c22.1,0,42.88-12.01,50.51-35.91c0.13-0.4,0.27-0.93,0.53-1.73h51.44c-0.2,1.06-0.33,1.86-0.4,2.39
		C343.36,268.35,302.47,303.4,250.3,303.4z M250.3,88.8c54.36,0,96.51,37.77,103.09,92.27c0.07,0.8,0.2,1.99,0.4,3.52H303
		c-0.13-0.86-0.27-1.59-0.33-1.99c-5.38-28.81-28.08-43.28-52.37-43.28c-24.03,0-46.46,14.2-52.17,42.35
		c-0.13,0.66-0.33,1.66-0.53,2.99h-50.71c0.2-2.19,0.4-3.85,0.53-4.98C154.51,125.91,196.4,88.8,250.3,88.8z"/>
	<path id="text" style="fill:#333333;" d="M85.81,390.09v-23.83c0-9.36,4.25-14.74,13.47-14.74c1.26,0,2.59,0.13,3.92,0.33V339.7
		c-0.53-0.13-1.73-0.33-3.19-0.33c-6.57,0-12.15,3.19-14.47,8.63v-8.03H73.86v50.12L85.81,390.09L85.81,390.09z M114.75,330.15
		c4.31,0,7.83-3.39,7.83-7.7s-3.52-7.83-7.83-7.83c-4.25,0-7.7,3.52-7.7,7.83S110.51,330.15,114.75,330.15z M120.73,390.09v-50.12
		h-11.82v50.12H120.73z M143.76,390.09v-28.87c0-6.57,3.58-11.82,10.36-11.82c7.5,0,10.29,4.91,10.29,11.09v29.6h11.95v-31.66
		c0-11.02-5.84-19.85-18.12-19.85c-5.58,0-11.55,2.39-14.8,8.1v-6.7h-11.55v50.12L143.76,390.09L143.76,390.09z M206.89,411.2
		c18.85,0,25.69-12.41,25.69-25.82v-45.34h-11.55v6.37c-2.19-4.12-6.97-7.3-14.8-7.3c-13.81,0-23.17,11.02-23.17,24.36
		c0,14.07,9.76,24.36,23.17,24.36c7.3,0,12.35-3.39,14.47-7.3v5.24c0,10.16-4.71,15-14.2,15c-6.9,0-11.75-4.65-12.55-10.82
		l-11.02,2.85C184.32,402.97,193.61,411.2,206.89,411.2z M208.21,377.61c-7.83,0-13.08-5.44-13.08-14.2
		c0-8.56,5.44-14.07,13.08-14.07c7.43,0,12.88,5.58,12.88,14.07C221.03,372.1,215.78,377.61,208.21,377.61z M264.9,391.62
		c15,0,26.02-11.22,26.02-26.62c0-15.33-11.02-26.55-26.02-26.55c-14.94,0-25.89,11.22-25.89,26.55
		C238.95,380.4,249.97,391.62,264.9,391.62z M264.9,380.93c-7.3,0-14.01-5.58-14.01-15.93c0-10.36,6.7-15.73,14.01-15.73
		c7.43,0,14.01,5.38,14.01,15.73C278.91,375.49,272.27,380.93,264.9,380.93z M322.19,390.09l19.65-50.12h-12.55l-12.94,35.78
		l-13.28-35.78h-13.14l20.38,50.12H322.19z M366.46,391.62c12.01,0,19.98-7.1,22.64-15.86l-10.09-3.19
		c-1.66,4.91-5.38,8.76-12.55,8.76c-7.43,0-13.34-5.44-13.67-13.08h36.64c0.13-0.2,0.33-1.86,0.33-3.78
		c0-15.86-9.03-26.02-24.49-26.02c-12.68,0-24.36,10.49-24.36,26.35C340.84,381.73,352.92,391.62,366.46,391.62z M377.68,359.56
		h-24.56c0.4-5.38,4.71-11.09,12.21-11.09C373.56,348.41,377.48,353.65,377.68,359.56z M408.74,390.09v-23.83
		c0-9.36,4.25-14.74,13.47-14.74c1.26,0,2.59,0.13,3.92,0.33V339.7c-0.53-0.13-1.73-0.33-3.19-0.33c-6.57,0-12.15,3.19-14.47,8.63
		v-8.03h-11.62v50.12L408.74,390.09L408.74,390.09z"/>
</g>
</svg>
